<?xml version="1.0" encoding="UTF-8"?> <svg xmlns="http://www.w3.org/2000/svg" width="385" height="384" viewBox="0 0 385 384" fill="none"> <path d="M344.21 216.167C344.81 212.576 345.582 209.313 346.527 206.377C347.439 203.463 348.591 200.987 349.982 198.948C351.396 196.942 353.102 195.481 355.1 194.566C357.093 193.678 359.457 193.463 362.191 193.919C364.925 194.376 367.102 195.364 368.722 196.884C370.369 198.408 371.542 200.392 372.241 202.837C372.963 205.314 373.296 208.166 373.239 211.392C373.178 214.647 372.822 218.221 372.172 222.115C371.319 227.224 370.134 231.426 368.618 234.722C367.098 238.045 365.316 240.472 363.271 242.004C361.255 243.541 359.047 244.18 356.649 243.921L358.448 233.151C359.111 232.921 359.793 232.41 360.493 231.619C361.22 230.832 361.911 229.584 362.565 227.877C363.22 226.169 363.798 223.811 364.301 220.8C364.892 217.265 365.15 214.356 365.078 212.073C365.032 209.794 364.626 208.066 363.857 206.887C363.089 205.708 361.932 204.99 360.385 204.731C359.032 204.505 357.826 204.843 356.767 205.745C355.708 206.647 354.763 208.221 353.934 210.467C353.105 212.713 352.372 215.742 351.735 219.553C351.287 222.232 351.01 224.57 350.904 226.568C350.82 228.598 350.893 230.455 351.123 232.14C351.348 233.852 351.699 235.572 352.177 237.298L350.81 238.092C347.865 235.84 345.817 232.886 344.668 229.231C343.518 225.575 343.366 221.221 344.21 216.167ZM342.125 233.745C342.954 233.884 343.874 234.151 344.887 234.547C345.899 234.944 346.944 235.402 348.021 235.923C349.121 236.475 350.154 237.003 351.121 237.505L353.819 221.349L358.169 222.075L354.481 244.155L340.769 241.865L342.125 233.745Z" fill="white"></path> <path d="M339.648 244.201L363.374 256.835L348.114 285.491C346.916 287.74 345.584 289.616 344.118 291.119C342.663 292.66 341.065 293.634 339.326 294.04C337.574 294.471 335.673 294.141 333.621 293.048C332.262 292.324 331.269 291.478 330.643 290.51C330.016 289.542 329.686 288.494 329.652 287.366C329.619 286.238 329.787 285.058 330.157 283.828C330.526 282.597 331.009 281.363 331.604 280.126L333.564 277.696C331.974 280.624 330.646 282.819 329.581 284.283C328.503 285.771 327.503 286.666 326.581 286.968C325.67 287.308 324.671 287.188 323.584 286.609L318.505 283.904L323.441 274.636L327.407 276.749C328.149 277.144 328.784 277.291 329.312 277.192C329.852 277.131 330.453 276.658 331.115 275.773C331.763 274.913 332.614 273.494 333.667 271.517L341.385 257.022L334.713 253.469L339.648 244.201ZM347.576 260.319L337.252 279.707C336.857 280.449 336.652 281.132 336.636 281.758C336.606 282.409 336.938 282.918 337.63 283.287C338.272 283.629 338.843 283.6 339.342 283.199C339.852 282.837 340.305 282.285 340.7 281.543L351.024 262.155L347.576 260.319Z" fill="white"></path> <path d="M314.533 294.139L318.987 298.594L298.674 318.908L294.219 314.453L314.533 294.139ZM318.304 284.606L324.571 316.354L316.315 324.61L284.448 318.462L292.615 310.295L320.651 316.294L316.225 320.719L310.137 292.773L318.304 284.606Z" fill="white"></path> <path d="M259.914 361.993L256.085 354.991L284.018 339.717L282.305 336.585L259.457 349.078L256.032 342.813L278.879 330.32L274.95 323.134L284.162 318.096L297.059 341.681L259.914 361.993Z" fill="white"></path> <path d="M209.489 374.29L207.785 366.494L238.886 359.696L238.124 356.208L212.685 361.769L211.16 354.794L236.599 349.233L234.85 341.232L245.108 338.99L250.848 365.25L209.489 374.29Z" fill="white"></path> <path d="M200.465 373.741L189.967 373.944L189.448 347.069L199.946 346.866L200.465 373.741Z" fill="white"></path> <path d="M181.464 374.921L138.437 367.395L139.812 359.534L182.839 367.06L181.464 374.921ZM166.403 364.74L156.06 362.93L159.411 343.775L169.754 345.585L166.403 364.74Z" fill="white"></path> <path d="M130.983 363.673L121.181 359.911L130.812 334.816L140.615 338.578L130.983 363.673Z" fill="white"></path> <path d="M108.505 324.651L91.3767 345.368L70.9842 328.507C66.7978 325.046 64.051 322.084 62.7437 319.623C61.4364 317.161 61.6213 314.916 63.2984 312.888C64.3689 311.593 65.6213 310.957 67.0554 310.981C68.4679 310.986 70.0886 311.508 71.9174 312.548C73.7068 313.592 75.7396 315 78.0158 316.773L77.5427 316.818C75.9243 315.48 74.4602 314.196 73.1505 312.968C71.8408 311.74 70.7929 310.547 70.0069 309.388C69.2209 308.23 68.7953 307.097 68.73 305.989C68.6648 304.882 69.0872 303.777 69.9971 302.677C71.1033 301.339 72.488 300.631 74.1511 300.553C75.8143 300.475 77.6983 300.942 79.803 301.956C81.8899 302.991 84.1203 304.49 86.494 306.453L108.505 324.651ZM95.3812 324.046L81.4626 312.538C80.3189 311.592 79.4097 311.022 78.7349 310.828C78.0386 310.615 77.4942 310.747 77.1016 311.221C76.834 311.545 76.7386 311.902 76.8154 312.293C76.8706 312.665 77.0999 313.091 77.5033 313.57C77.8888 314.07 78.4592 314.633 79.2145 315.257L93.1332 326.765L95.3812 324.046ZM90.5639 329.873L78.0048 319.489C76.8611 318.543 75.9518 317.973 75.2771 317.778C74.5808 317.566 74.0364 317.697 73.6438 318.172C73.2335 318.668 73.207 319.227 73.5643 319.85C73.8822 320.476 74.613 321.262 75.7567 322.208L88.3159 332.592L90.5639 329.873Z" fill="white"></path> <path d="M59.438 293.978L62.2118 292.082L44.1978 265.731L50.7855 261.227L74.7252 296.247L52.5348 311.416L28.6425 276.466L35.2303 271.963L53.1969 298.245L55.9707 296.348L41.2751 274.851L44.7423 272.481L59.438 293.978Z" fill="white"></path> <path d="M43.9623 254.154L37.9627 256.076L29.1978 228.718L35.1974 226.796L43.9623 254.154ZM50.7125 261.871L19.6168 252.913L16.0545 241.794L36.1043 216.274L39.6282 227.273L21.4637 249.455L19.5544 243.495L47.1886 250.871L50.7125 261.871Z" fill="white"></path> <path d="M36.2783 216.398L9.40011 216.709L9.02415 184.246C8.99464 181.698 9.2622 179.412 9.82681 177.39C10.3631 175.339 11.2964 173.718 12.6267 172.527C13.9567 171.308 15.7836 170.684 18.1074 170.657C19.6473 170.64 20.9245 170.905 21.9389 171.453C22.9533 172.001 23.7462 172.762 24.3175 173.736C24.8888 174.709 25.3077 175.824 25.5743 177.081C25.8409 178.338 26.0101 179.652 26.082 181.024L25.5295 184.096C25.5189 180.764 25.6293 178.201 25.8605 176.406C26.0914 174.583 26.5388 173.318 27.2026 172.61C27.8382 171.875 28.7719 171.5 30.0038 171.486L35.7574 171.419L35.879 181.918L31.3853 181.97C30.5454 181.98 29.9173 182.155 29.5013 182.496C29.0569 182.809 28.757 183.513 28.6016 184.607C28.446 185.673 28.3811 187.326 28.4071 189.565L28.5972 205.986L36.1567 205.899L36.2783 216.398ZM21.5837 206.068L21.3293 184.103C21.3196 183.263 21.1715 182.565 20.885 182.008C20.5982 181.423 20.0629 181.135 19.2789 181.145C18.551 181.153 18.0644 181.453 17.8192 182.044C17.5457 182.607 17.4139 183.308 17.4236 184.148L17.678 206.113L21.5837 206.068Z" fill="white"></path> <path d="M51.194 98.098C53.5396 99.3603 55.1401 101.184 55.9954 103.57C56.8508 105.955 56.9364 108.922 56.2523 112.469C55.5801 115.992 54.1083 120.158 51.8369 124.969C50.1034 128.64 48.3467 131.836 46.5668 134.556C44.8122 137.289 42.9823 139.459 41.0772 141.068C39.1467 142.665 37.1015 143.619 34.9417 143.93C32.7818 144.242 30.4486 143.806 27.942 142.623C25.4353 141.439 23.6035 139.908 22.4465 138.031C21.2641 136.141 20.6634 133.937 20.6442 131.42C20.5998 128.891 21.0498 126.069 21.9941 122.954C22.9385 119.839 24.2774 116.446 26.0109 112.775C28.2823 107.964 30.6083 104.185 32.9888 101.439C35.3441 98.6804 37.7524 96.8914 40.2139 96.072C42.6755 95.2525 45.1515 95.3533 47.6419 96.3743L42.9795 106.249C42.0258 106.17 41.0539 106.393 40.0637 106.916C39.0481 107.427 37.9806 108.409 36.861 109.863C35.7414 111.316 34.5301 113.422 33.227 116.182C31.6968 119.423 30.656 122.152 30.1047 124.369C29.5281 126.573 29.4491 128.348 29.8676 129.691C30.2862 131.034 31.2044 132.04 32.6223 132.71C33.9136 133.32 35.1855 133.347 36.4381 132.793C37.6906 132.239 38.985 131.039 40.3212 129.192C41.6574 127.346 43.0906 124.803 44.6208 121.562C45.9239 118.802 46.7874 116.547 47.2114 114.796C47.6474 113.02 47.7781 111.596 47.6036 110.522C47.4038 109.437 47.0465 108.587 46.5317 107.973L51.194 98.098Z" fill="white"></path> <path d="M80.4546 83.8494C76.2016 88.2279 72.3961 91.3821 69.0382 93.312C65.6602 95.2224 62.623 96.0585 59.9266 95.8205C57.2296 95.5429 54.7564 94.3116 52.5069 92.1266C50.2574 89.9415 48.9648 87.5149 48.629 84.8466C48.2926 82.1388 49.0402 79.0785 50.8717 75.6659C52.6831 72.2338 55.7153 68.3285 59.9683 63.9501C64.2213 59.5716 68.0368 56.4272 71.4148 54.5168C74.7728 52.5869 77.8002 51.7608 80.4972 52.0384C83.1936 52.2764 85.6665 53.4879 87.916 55.6729C90.1655 57.858 91.4584 60.3044 91.7948 63.0123C92.1306 65.6805 91.3928 68.7307 89.5814 72.1628C87.7499 75.5755 84.7076 79.471 80.4546 83.8494ZM74.7305 78.2893C76.7399 76.2206 78.3557 74.316 79.5779 72.5756C80.78 70.8156 81.4596 69.2117 81.6168 67.764C81.7539 66.2967 81.2199 64.9778 80.0148 63.8072C78.8097 62.6367 77.4859 62.151 76.0433 62.3502C74.5806 62.5298 72.9972 63.2558 71.293 64.528C69.5687 65.7807 67.7019 67.4415 65.6924 69.5102C63.683 71.5789 62.0479 73.5234 60.7873 75.3436C59.5261 77.1242 58.7977 78.7783 58.6021 80.3058C58.4059 81.7938 58.9104 83.123 60.1155 84.2935C61.3205 85.4641 62.6739 85.9395 64.1756 85.7196C65.6767 85.4602 67.3089 84.684 69.0722 83.3911C70.835 82.0586 72.721 80.358 74.7305 78.2893Z" fill="white"></path> <path d="M95.2765 36.3925L104.649 52.8051L125.912 40.6629L129.869 47.5927L99.4877 64.9416L86.1584 41.5993L95.2765 36.3925Z" fill="white"></path> <path d="M133.51 18.3858L138.798 36.5309L162.306 29.6797L164.539 37.341L130.95 47.13L123.429 21.3237L133.51 18.3858Z" fill="white"></path> <path d="M176.528 24.9606L176.606 28.3197L208.517 27.5805L208.702 35.5584L166.293 36.5407L165.671 9.6679L207.995 8.68753L208.18 16.6654L176.353 17.4026L176.431 20.7617L202.464 20.1587L202.561 24.3576L176.528 24.9606Z" fill="white"></path> <path d="M262.202 38.5061C261.314 41.0173 259.757 42.8782 257.531 44.0889C255.304 45.2995 252.386 45.8384 248.775 45.7056C245.192 45.5808 240.849 44.7645 235.747 43.2566C231.854 42.1059 228.426 40.8594 225.465 39.5171C222.497 38.2017 220.071 36.7258 218.19 35.0895C216.317 33.4263 215.06 31.5514 214.422 29.4648C213.783 27.3782 213.856 25.0057 214.642 22.3474C215.428 19.689 216.66 17.6444 218.338 16.2134C220.024 14.7556 222.11 13.8245 224.594 13.4201C227.087 12.9888 229.944 13.0013 233.167 13.4575C236.39 13.9136 239.948 14.7171 243.842 15.8678C248.944 17.3757 253.034 19.0955 256.113 21.0273C259.199 22.9323 261.336 25.0383 262.523 27.3452C263.71 29.6522 263.989 32.1144 263.362 34.7319L252.89 31.6368C252.821 30.6823 252.453 29.7559 251.784 28.8575C251.123 27.9322 249.989 27.0277 248.382 26.1439C246.774 25.26 244.507 24.3856 241.58 23.5206C238.143 22.5048 235.287 21.8942 233.012 21.689C230.745 21.4569 228.979 21.6505 227.716 22.2698C226.453 22.8891 225.599 23.9506 225.154 25.4543C224.75 26.8238 224.917 28.085 225.657 29.2378C226.396 30.3907 227.781 31.486 229.81 32.5237C231.839 33.5613 234.572 34.5881 238.009 35.6039C240.936 36.4689 243.297 36.9769 245.091 37.1278C246.913 37.2866 248.341 37.1976 249.375 36.8608C250.417 36.4972 251.202 36.0139 251.73 35.411L262.202 38.5061Z" fill="white"></path> <path d="M274.488 27.4939L310.727 51.8799L306.272 58.5005L270.033 34.1145L274.488 27.4939ZM284.102 42.9235L292.813 48.7855L281.957 64.9188L273.246 59.0568L284.102 42.9235Z" fill="white"></path> <path d="M315.826 57.931L323.277 65.3286L304.339 84.4046L296.888 77.007L315.826 57.931Z" fill="white"></path> <path d="M316.308 98.4093L329.511 69.8826L336.124 79.7089L322.455 105.663L320.064 102.109L349.255 99.2222L355.773 108.909L324.468 110.535L316.308 98.4093Z" fill="white"></path> <path d="M347.632 131.603L344.424 132.604L353.933 163.074L346.315 165.452L333.679 124.958L359.338 116.95L371.95 157.364L364.332 159.741L354.848 129.351L351.641 130.352L359.398 155.209L355.389 156.46L347.632 131.603Z" fill="white"></path> </svg> 